<svg version="1.1" id="floter_signature_svg" xmlns="http://www.w3.org/2000/svg" xmlns:xlink="http://www.w3.org/1999/xlink"
	 x="0px" y="0px" viewBox="0 0 510.3 655" style="enable-background:new 0 0 510.3 655;" xml:space="preserve">
<style type="text/css">
	.floter_signature_svg_white{fill:#FFFFFF;}
</style>
<g>
	<path class="floter_signature_svg_white" d="M161.3,346.6c4,0,6.6-2.6,6.6-6.4c0-3-2.3-6-6.3-6c-4.1,0-6.5,3.2-6.5,6.2C155.1,344,158.1,346.6,161.3,346.6z
		"/>
	<path class="floter_signature_svg_white" d="M181.2,346.6c3.2,0,6.2-2.6,6.2-6.2c0-3-2.3-6.2-6.4-6.2c-4,0-6.3,3-6.3,6C174.7,344,177.2,346.6,181.2,346.6z
		"/>
	<path class="floter_signature_svg_white" d="M186.1,356.6c-4-2.5-8.7-3.7-14.1-3.7c-6.2,0-12.4,1.5-16.9,4.9c-6.2,4.5-9.8,11.8-9.8,19.9
		c0,7.9,2.9,13.5,7.6,17.5c4.1,3.5,10.2,4.9,16.3,4.9c5.9,0,11-1.3,15-3.9c6-3.9,11-11.6,11.1-20.6
		C195.3,366.5,191.3,360,186.1,356.6z M174.9,389.6c-1.2,2-2.9,2.5-4.6,2.5c-1.8,0-3.4-0.7-4.7-2.8c-1.5-2.2-2.4-5.7-2.4-13.3
		c0-6.2,1.1-10.1,2.7-12.6c1.3-1.9,3-2.6,4.8-2.6c1.9,0,3.7,1.1,4.9,3.2c1,2.4,1.8,5.6,1.8,11.9
		C177.4,382.8,176.9,386.9,174.9,389.6z"/>
	<path class="floter_signature_svg_white" d="M259.9,400.1c4.9,0,13.9-2,20-4.8c-0.5-2.5-1.3-5.8-2-8.5c-3.4,1.3-10.1,2.9-14.5,2.9c-2.7,0-5.3-0.2-7.7-2.5
		c-1.3-1.4-2.6-3.3-2.6-6.8c9.1,0,19.7,0,22.4-0.3c0.8-0.1,5.4-4.6,5.5-6.1c0-6.6-1.9-11.9-5.2-15.8c-2.8-3.1-7.6-5.4-14-5.4
		c-15.4,0-25.9,11.5-25.9,26.1C235.9,393.4,246.2,400.1,259.9,400.1z M254.8,364.2c1.4-2.3,3.2-2.7,4.9-2.7c2.2,0,3.7,1.2,4.7,3.1
		c0.7,1.6,1.1,4.2,1.1,6.4c0,0.7-0.3,1.1-0.9,1.1c-3,0.1-8,0.2-11.6,0.2C252.8,368.2,253.6,366.3,254.8,364.2z"/>
	<path class="floter_signature_svg_white" d="M202.5,353.9c-2.1,0.2-4.5,0.4-6.7,0.6c-0.2,2.7-0.3,5.8-0.3,8.7c2.6,0,5.5,0,7.2,0c0,1.4-0.1,11.3-0.1,13.5
		c0,1.2-0.1,6.4-0.1,12.2c0,2.9,0.3,5.2,3.6,8.1c2.7,2.4,5.2,3.1,8,3.1c7.6,0,15.1-0.9,22.1-3.6c-0.2-2.6-0.6-5.8-1.1-8.6
		c-3.2,0.8-7.1,1.5-11.2,1.5c-2.2,0-4.7-1.7-4.7-4.6c0-4.6,0-8.6,0-12.8c0-5.6,0.1-7.7,0.1-8.6c4.7,0,11.1,0.1,15.4,0.1
		c0.3-3.1,0.4-6.6,0.4-9.6c-4.8,0.1-10.6,0.1-15.8,0.1c0.1-2.8,0.2-12.1,0.3-14.4c0-0.3-0.1-0.4-0.3-0.4c-0.3,0-10.2,2.8-15.3,5.4
		c-0.3,2.4-0.5,5.8-0.8,8.5C203.2,353.6,202.9,353.9,202.5,353.9z"/>
	<path class="floter_signature_svg_white" d="M288.6,390.2c0,0.2-0.1,0.3-0.4,0.4l-4.8,0.2c-0.1,2.5-0.1,5.6-0.1,8.4c4.3,0,10.1-0.1,14.6-0.1
		c4.8,0,11.2,0,15.5,0c0.2-2.7,0.2-5.6,0.2-8.4l-8.4-0.3c0-1.6,0-4,0-5.7c0.1-2.8,0.3-6.1,1.5-8.6c1.9-3.7,3.5-5.6,5.3-7.1
		c1-0.8,2-0.9,3-0.9c2.5,0,5.6,0.8,6.5,1c1.9-1.8,4.8-10.1,4.8-14.9c-2.1-0.7-4.8-1.3-7.4-1.3c-5.2,0-7.5,1.4-13.9,13.5l-0.6-0.1
		c-0.3-4.5-0.7-8.8-1-13.2c0-0.2-0.1-0.2-0.2-0.2c-0.6,0-15.9,2.2-20.5,2.7c-0.1,2.6-0.2,5.6-0.2,8.4l6.1,0.3
		C288.6,372.3,288.6,381.9,288.6,390.2z"/>
	<path class="floter_signature_svg_white" d="M86.3,398.8c3.3,0,6.9-0.1,9.9-0.1c4.8,0,9.8,0,13.6,0c0.1-2.9,0.1-5.6,0.1-8.4l-5.5-0.3
		c0-7.6,0.1-19.8,0.1-27c5.4,0,11.6,0,18.1,0c0,9,0,18.4,0,26.5c0,0.3-0.2,0.5-0.4,0.6l-4.7,0.2c0,2.6,0,5.7,0,8.5
		c3.6,0,8.8-0.1,12.8-0.1c4.8,0,10.2,0,14.3,0c0-2.6,0.1-5.6,0.1-8.4l-6-0.3c0.1-18.2,0.4-42.4,0.4-58.5c0-0.3-0.1-0.6-0.4-0.8
		c-4.4-1.8-15.3-3.3-23.1-3.3c-9.1,0-13.6,0.9-20.7,7.1c-5.6,4.8-6.9,8.7-7,18.2c0,0.5-0.2,0.8-0.5,0.8c-1.9,0.1-4.4,0.2-6.2,0.2
		c-0.1,2.8-0.2,6.1-0.2,9.2c2.6,0,5.5,0,7.2,0c0,8.4,0,18.4,0,26.5c0,0.3-0.1,0.5-0.3,0.5l-5.1,0.3c0,1.4-0.1,2.8-0.1,4.2
		L86.3,398.8z M105.7,339.3c0.8-1.3,2.7-2.2,5.4-2.2c4.8,0,8.3,0.5,11.4,1.4c0,5,0,9.5,0.1,15.4c-6.6,0-12.3,0-18,0
		C104.4,343.8,104.8,340.8,105.7,339.3z"/>
</g>
<g>
	<path d="M58.7,408.6c-3.2-3-2.9-5.4-1.2-8.5c0.8-1.5,2-3.1,1.9-4.7c0-1.2-1.4-3.1-2.7-3.4c-1.6-0.5-4.1-0.2-5.6,0.6
		c-8,4.4-17.3,4.3-24.9,2.1c-9.6-2.8-15.2-0.2-21,5.2c-0.5,0.5-1.2,0.8-1.7,1.2c-3.9,3.2-4.7,7.4-1.7,11.4
		c8.2,10.9,19.6,17.2,37.3,17.2c5.4,0.8,11.7-1.3,17.3-5.6C62.1,419.8,63.7,413.3,58.7,408.6z"/>
	<path d="M389.7,190.4c1,1.4,2.8,2.3,4.4,3.5c6-1.7,11.5-3,16.8-4.6c6.5-2.1,9-8.9,5.8-14.8c-3.5-6.3-9.4-8.2-16.2-5.3
		c-5.3,2.2-9.1,5.5-12.4,9.8c-1.6,2.2-2.2,3.4-1.1,5.5C388,186.5,388.4,188.6,389.7,190.4z"/>
	<path d="M331.2,487.1c-8.9-2.2-20,5.1-19.6,13c0.1,1.2,0.4,2.8,1.3,3.5c3.2,2.6,6.3,5.6,10.1,7c2,0.7,5.5-1.6,8.3-2.5
		c0.9-0.3,1.8-0.6,2.7-0.9c6.5-2.2,7.7-3.7,7.9-9.8C342.1,490.7,341,489.6,331.2,487.1z"/>
	<path d="M506.1,27.1c-15.3,4.3-19.2,16.2-25,26.9c-0.4,0.7-0.4,1.7-0.4,2.5c0.1,3,2,4.8,5.1,2.9c4.7-2.8,9.6-5.8,13-9.7
		c4.3-4.9,7.3-10.6,10.7-16.1c0.8-1.2,0.8-2.8,0.8-2.9C510.2,25.3,510.4,25.9,506.1,27.1z"/>
	<path d="M269.5,178c5.9,0,7.5-1.8,7.8-8.4c0.3-8.2-3-10.5-11.9-8.3c-2.8,0.8-5.8,1.5-8.1,2.9c-1.7,1.1-3.5,3.3-3.5,5
		C253.7,173.9,261.5,178.1,269.5,178z"/>
	<path d="M431.8,115.1c5.3-1.7,5.9-5.7,6.4-11.5c-0.5-0.8-1.5-3.6-3.6-4.3c-4.2-1.7-15.3,3.5-16.3,7.4c-0.4,1.7,0.3,4.2,1.6,5.6
		C422.9,115.5,427.2,116.5,431.8,115.1z"/>
	<path d="M350.5,163.1c0.3-0.5-0.2-1.8-0.7-2.1c-0.6-0.3-1.9-0.2-2.7,0.1c-3.1,1.2-6.1,2.7-9.2,3.8c-4.9,1.7-7.9,4.2-5.7,9.9
		c-0.5,2-1.2,4.6-1.9,7.2c-0.2,1.1-0.3,2.2-0.4,3.3c1.2-0.3,2.4-0.4,3.4-0.9C342.8,179.6,346.1,171,350.5,163.1z"/>
	<path d="M470.4,254.8c-2.9-1.6-5.9-2.2-8.6,0.2c-2.2,1.9-4.7,3.8-6.2,6.1c-1.1,1.6-1.4,4.2-0.6,5.7c0.9,1.5,3.6,2.3,4.6,2.9
		c6,0.1,11.2-3.7,13-8.3C473.7,258.6,473.3,256.5,470.4,254.8z"/>
	<path d="M424.9,405.8c-5-5.9-12.5-4.8-19.4-6.7c-1.3,0.5-2.7,1.2-4.2,1.9c0.8,1.1,1.3,2.8,2.5,3.3c6,2.5,11.8,5.8,19.1,5.2
		c3.3-0.3,6.7,0.4,10.1,0.5c1.1,0,2.2-0.2,3.3-0.3c-0.9-0.8-1.8-1.8-2.9-2.1C430.6,406.9,426.2,407.3,424.9,405.8z"/>
	<path d="M419.3,269c-4.3,1.7-8.4,3.8-12.2,6.3c-1.4,0.9-2.1,3.4-1.8,5c0.2,1,2.6,1.8,3.2,2.2c5.1,0,15.4-7.1,16-10.1
		C425,270,422.1,267.8,419.3,269z"/>
	<path d="M475.2,194.9c-4.7-0.3-6.6,3.3-7.7,6.5c-0.6,1.9-0.1,4.4,0.8,6.3c0.4,0.7,3.8,1.4,4.5,0.9c3.4-2.6,6.5-5.7,9.5-8.4
		c-0.4-1-0.4-1.5-0.7-1.8C479.5,197.2,477.4,195,475.2,194.9z"/>
	<path d="M178.5,115.2c3.3-0.1,7-2.9,6.9-5.4c0-2.9-5.8-7-9.9-7.1c-3.9,0-4.7,2.3-4.9,4.7C170.6,111.6,174.5,115.3,178.5,115.2z"/>
	<path d="M418.7,154.3c0.5-1.2,0.4-3-0.3-4c-0.5-0.6-2.6-0.8-3.9-0.6c-6.8,0.8-10.6,4.6-12.1,10.1c-0.2,0.8,0.8,1.9,1.1,2.4
		C410.2,162,417.2,158.2,418.7,154.3z"/>
	<path d="M269,273.2c1.1,1.5,3.5,2.5,6.3,4.3c1.9-2.1,4.3-3.7,4.6-5.3c0.6-3.8,1-7.4,4.3-10.4c0.7-0.6-0.3-2.6-0.5-3.9
		c-1.4,0.5-3.1,0.6-4,1.5c-3.1,3.1-6.1,6.4-8.9,9.7C269.8,270.3,268.4,272.4,269,273.2z"/>
	<path d="M62.1,279.9c3.1,1.8,6.9,2.7,10.6,3.4c0.5,0.1,1.7-2.9,2.2-3.7c-0.2-2,0.1-3.3-0.6-4.1c-1.1-1.4-2.8-3.6-4.2-3.5
		c-3.2,0.1-6.5,1-9.3,2.4C60.1,274.7,60.7,279.1,62.1,279.9z"/>
	<path d="M108.2,18.2c0.6,1.8,1.5,3.5,2.5,5.2c0.4,0.7,1.4,1.1,2.1,1.6c0.5-0.8,1-1.6,1.8-2.9c-2.3-6.7-4.6-13.6-7.1-20.4
		c-0.3-0.8-2.2-1.1-3.3-1.7c-0.2,1-0.7,2-0.4,2.9C105.1,8,106.6,13.1,108.2,18.2z"/>
	<path d="M428.2,176.4c3.5-1.7,6.5-4.3,10.9-7.5c-3.2-1.6-5-3.1-7-3.4c-2.8-0.5-10.2,4.1-9.4,5.4C424,173.1,427.6,176.7,428.2,176.4
		z"/>
	<path d="M210.4,232c3.5,0.8,10.1-3.1,9.4-5.4c-0.5-1.8-2.8-3.2-3.6-4.1c-5.5-0.1-10.2,3.1-9.7,5.9
		C206.8,229.8,208.8,231.6,210.4,232z"/>
	<path d="M254.5,232.1c1.6-0.2,2.9-1.9,3.7-2.4c-0.1-4.6-3.3-7.3-7.1-7.2c-3.3,0.2-4.9,1.9-4.8,4.6
		C246.4,229.7,250.9,232.6,254.5,232.1z"/>
	<path d="M360.6,169.1c3.3,1.6,6.8,3.1,10.4,4.3c0.8,0.2,2.7-0.8,3.5-1.6c0.5-0.5,0.2-2.4-0.4-2.7c-3.5-1.8-7.2-3.4-11.1-5.1
		c-1.3,0.8-2.7,1.3-3.3,2.4C359.4,167,359.9,168.7,360.6,169.1z"/>
	<path d="M306.3,633.6c-0.2,0.8-0.9,1.7-0.6,2.3c2.5,6,5.2,12.1,8,18.1c0.2,0.5,1.5,0.6,2.3,0.9c0.2-0.5,0.3-1.1,0.8-2.8
		c-2.5-5.2-5.4-11.2-8.3-17.2C308.2,634.3,307.1,634,306.3,633.6z"/>
	<path d="M159.1,132.6c-0.3-1.4-2.4-3-4-3.4c-2.5-0.6-7.2,3.6-6.9,6.2c0.1,1.4,1.7,2.8,2.3,3.7C154.9,139.3,159.7,135.3,159.1,132.6
		z"/>
	<path d="M227.7,545.3c-0.7-1.6-1.3-3.4-1.9-5.1c-0.3,1.7-0.7,3.4-1.1,5.1c0,0.2,0,0.4,0,0.6c-0.2,0-0.4,0.1-0.6,0.1
		c0.5,2.4,0.8,4.9,1.6,7.2c0.8,2.4,2,4.6,3.1,6.8c0.4,0.9,0.9,1.8,1.4,2.7c0.6-1,1.7-2,1.6-3c-0.3-2.9-0.7-5.8-1.5-8.6
		C229.8,549.1,228.5,547.2,227.7,545.3z"/>
	<path d="M332.4,459.6c0.1,0,0.8-2,0.6-2.1c-2.4-1.5-5.1-2.8-7.9-4.3c-1.9,0.9-3.3,1.6-4.7,2.2c1,1.1,1.8,2.8,3,3.1
		C326.3,459.2,329.4,459.4,332.4,459.6z"/>
	<path d="M157.7,242.1c0.7,3.4,1.7,6.8,2.7,10.2c0.1,0.4,1,0.7,1.6,1c0.4-0.5,0.9-1,1-1.5c0.1-1,0-2.1,0-4.6c-0.2-1-0.7-3.4-1.5-5.7
		c-0.1-0.5-1.5-1.2-2.2-1.1C158.6,240.5,157.6,241.6,157.7,242.1z"/>
	<path d="M234.9,572.1c-0.3,0.6-0.9,1.2-0.8,1.7c0.9,3.6,1.9,7.3,3.1,10.9c0.3,0.8,1.4,1.4,2.2,2.1c0.3-0.9,0.7-1.8,1.1-3
		c-1.1-3.5-2.1-7.1-3.3-10.7C237,572.6,235.7,572.4,234.9,572.1z"/>
	<path d="M170.3,392.1c1.7,0,3.4-0.5,4.6-2.5c2-2.7,2.5-6.8,2.5-13.7c0-6.3-0.8-9.5-1.8-11.9c-1.2-2.1-3-3.2-4.9-3.2
		c-1.8,0-3.5,0.7-4.8,2.6c-1.6,2.5-2.7,6.4-2.7,12.6c0,7.6,0.9,11.1,2.4,13.3C166.9,391.4,168.5,392.1,170.3,392.1z"/>
	<path d="M259.7,361.5c-1.7,0-3.5,0.4-4.9,2.7c-1.2,2.1-2,4-1.8,8.1c3.6,0,8.6-0.1,11.6-0.2c0.6,0,0.9-0.4,0.9-1.1
		c0-2.2-0.4-4.8-1.1-6.4C263.4,362.7,261.9,361.5,259.7,361.5z"/>
	<path d="M450.8,327.9c-2.9-0.6-6-1.6-8.9-1.3c-10.4,1.2-20.6,2.8-30.9,4.3c-10-1.5-20.6,0.9-28-7.4c-0.5-0.6-1.7-0.8-2.7-1
		c-2.8-0.7-5.1-1.7-4.7-4.7c0.4-3.1,0.4-6.4,4.3-8.2c4.9-2.2,8.6-0.2,10.5,5.4c2.2,6.9,6.6,8.7,13.9,5.3c2.6-1.2,5.4-3.4,6.3-5.7
		c3-7,8.1-9.9,16.9-9c6.1,0.6,8.8-1.4,9.9-5.5c1.4-5.6-1-10.3-6.4-12.1c-4.3-1.5-7-0.5-8.6,3.3c-0.8,1.8-0.6,4.1-1.9,5.3
		c-1.6,1.5-4.3,2.9-6.5,2.8c-1.9,0-5.5-2.8-5.2-3.3c3-6.3-3.2-7.7-7.2-9.8c-8.6-4.4-13.5-2.3-15.2,6.2c-0.8,4.2-3.1,6.6-8.2,6.2
		c-3.4-0.3-5.3,0.5-6.6,3.6c-2.6,6.3-5.8,7.4-13.6,6.5c-3.2-0.4-6.6,0.1-9.9,0.2c-2.3,0-4.6,0-6.8-0.1c0.2-2.1,0.4-4.2,0.5-6.4
		c0.2-4.9,8.2-8.2,3.9-14c-0.2-0.2,1.2-1.7,2.2-2c7.3-2.7,13.9-6,19.5-11c1.2-1.1,3.5-1.3,5.4-1.6c7.3-1.4,14.6-2.5,19.8-8.1
		c1.9-2.1,5.1-3.2,7.7-4.8c2.2-1.3,4.5-2.6,6.5-4.1c1-0.8,1.6-2,2.4-3c-1.6,0.2-3.4,0-4.6,0.7c-3.6,2.1-6.8,4.9-10.5,6.8
		c-2,1-5.4,1.5-7.2,0.7c-3.2-1.5-3.3-4.6-1.6-7.2c0.9-1.4,2.5-2.8,4.2-3.3c7.2-1.9,9.5-6.8,9.6-12.2c0.1-5.6-1.2-11.3-2.2-16.9
		c-0.5-2.7-1.6-2.4-3.4-0.2c-2.7,3.4-5.5,3.1-7.5-0.3c-2.5-4.5-4-5.1-9.1-4.1c-10.3,2-19,6-24.6,14.3c-3,4.4-7.4,4.3-11.2,0
		c-2.8-3.1-5.7-6-10.5-6.1c-2.1,0-5,0.9-6.2,2.2c-2.9,3.3-5.1,7.1-7.5,10.7c-4,6-1.9,10,6.1,11.4c2.6,0.5,5.4,0.5,7.9,1.2
		c1.5,0.4,3.8,1.7,3.7,2.4c-0.1,1.4-1.4,3.1-2.8,3.9c-1.7,1-4.1,1.8-6.1,1.7c-4.8-0.2-9.6-1.1-14.4-1.7c-1.8-0.2-4-0.7-5.5-0.1
		c-6.1,2.6-12.1,5.3-14.3,11.7c-0.7,2-3.2,3.8-5.4,5c-7.4,4.3-10.3,10.9-12.6,17.8c-0.9,2.7-1.4,5.7-5.4,5.8c-4,0.1-6.4-2.3-7.2-5.4
		c-1.1-4.3-1.6-8.7-2.1-13.1c-0.4-2.7-0.1-5.5-0.7-8.2c-0.7-3.1-3.9-4.7-6.5-2.5c-5.4,4.8-13,8.4-13.7,16.4
		c-0.2,2.8-1.5,5.8-3.1,8.3c-2.4,3.8-5,4-9.7,2.3c-8.2-2.8-12.8-8.9-18.2-14.2c-2-2-2.3-6.4-4.3-6.9c-2.4-0.5-5.6,2.3-8.7,3
		c-9.2,2.1-18.5,3.9-27.8,5.6c-9.3,1.6-18.6,2.9-28,4.4c-0.9,0.1-1.9,0.4-2.8,0.8c-6.6,3.6-13.5,2.5-20.6,1.2
		c-6.4-1.2-13-1.6-19.5-2.5c-4-0.6-8-1.4-12-2.1c-1.1-0.2-2.7-0.4-3.2,0.1c-0.7,0.6-0.8,2-0.5,2.8c0.5,1.6,1.5,3.1,2.3,4.6
		c2.9,5.1,5.9,10.2,8.8,15.3c1.8,3.1,1.7,5.9-1.5,8.6c-3.1,2.6-5.8,5.6-8.4,8.6c-3.7,4.3-12.1,7.7-16.4,5.9
		c-9.3-4.1-17.7-1.4-25.8,2.4c-1.7,0.8-3,3.4-3.1,5.2c-0.4,6.3-0.3,12.6,0,19c0.1,1.7,1.1,4.2,2.5,4.9c3.3,1.5,6.6,2.9,10,3.7
		c3.9,0.8,7.9,0.9,12.3-0.7c3.9-1.4,8.6-2.1,12.8-1.8c9.4,0.8,14.8,8.8,11,16.2c-2.7,5.1-4.1,9.9-1.3,14.4c0-1.4,0.1-2.8,0.1-4.2
		l5.1-0.3c0.2,0,0.3-0.2,0.3-0.5c0-8.1,0-18.1,0-26.5c-1.7,0-4.6,0-7.2,0c0-3.1,0.1-6.4,0.2-9.2c1.8,0,4.3-0.1,6.2-0.2
		c0.3,0,0.5-0.3,0.5-0.8c0.1-9.5,1.4-13.4,7-18.2c7.1-6.2,11.6-7.1,20.7-7.1c7.8,0,18.7,1.5,23.1,3.3c0.3,0.2,0.4,0.5,0.4,0.8
		c0,16.1-0.3,40.3-0.4,58.5l6,0.3c0,2.8-0.1,5.8-0.1,8.4c-4.1,0-9.5,0-14.3,0c-4,0-9.2,0.1-12.8,0.1c0-2.8,0-5.9,0-8.5l4.7-0.2
		c0.2-0.1,0.4-0.3,0.4-0.6c0-8.1,0-17.5,0-26.5c-6.5,0-12.7,0-18.1,0c0,7.2-0.1,19.4-0.1,27l5.5,0.3c0,2.8,0,5.5-0.1,8.4
		c-3.8,0-8.8,0-13.6,0c-3,0-6.6,0.1-9.9,0.1c0.4,1.4,0.2,4-0.3,6.3c-0.5,2.1-1.3,3.9-2.1,4c-1.9,0.3-4.2-0.9-6.3-1.6
		c-3.4-1.1-6.7-1.6-9.3,1.3c-3,3.4-2.9,9.9-0.1,12c4.9,3.6,4.7,7.4-1.2,9.4c-4.7,1.6-6.7,4.6-8.1,8.3c-0.9,2.6-1.9,5.2-3,7.8
		c-2.6,6.1,3.8,15.7,11.4,16.8c13,1.8,19.5-0.9,25.9-11c4.3-6.8,11.7-9,20.6-6.4c1.7,0.5,4,0.9,5.4,0.3c4.6-1.9,5.5,0.7,6.6,3.5
		c1.1,2.7,2.4,5.5,3.9,8.1c1.3,2.4,2.9,4.6,4.7,6.8c0.5,0.6,2.4,1.1,2.9,0.8c4.9-3.2,8.2-1,11.2,2.3c1.7,1.8,3.1,3.8,5,5.5
		c4,3.8,7.8,3.5,10.1-1.2c1.6-3.3,4.2-4.3,7.9-4.5c5.7-0.3,10.6,0.7,14.3,4.9c2.2,2.5,4.8,4.8,7.3,7.1c4.5,4.1,6.4,4.3,11.8,1.3
		c5.5-3,11.3-2.4,16,1.4c3.2,2.6,6.5,5.2,10.1,7.3c4.9,2.9,7.8,6.7,6.8,11.7c-1.7,9,6.7,12.9,12,18.4c1.8,1.8,4.1,0.6,3.6-1.6
		c-0.7-3.2-2.2-6.4-3.9-9.4c-1.9-3.2-4.6-5.9-6.8-9c-0.5-0.7-0.3-2.3,0.3-2.8c0.6-0.5,2.7-0.4,3.2,0.1c4.8,4.7,9.7,9.3,13.8,14.4
		c3.1,4,4.9,8.7,7.4,13c0.7,1.1,2.2,1.9,3.3,2.8c0.4-1.4,1.5-2.9,1.1-4.1c-1.1-3.6-2.2-7.4-4.1-10.7c-4.7-7.9-9.3-15.6-11.3-24.5
		c-1.8-8.3-2.4-16.5-0.7-24.7c0.4-2,3.3-4.2,5.7-5.2c1.3-0.5,5.2,1.1,5.7,2.5c2.5,6.1,7.7,9.5,13.9,12.3c1.2,0.5,2.3,1.3,3.4,2
		c-0.1-1.4,0.3-2.9-0.3-4.1c-1-1.9-2.4-3.7-4-5.2c-4.9-4.4-9.8-8.8-14.9-13c-2.2-1.8-5-3.2-7.5-4.7c-0.9,2-1.8,4.1-2.7,6.1
		c-0.8,1.7-2.9,3.4-4,1.2c-1.2-2.5-1.2-5.8-0.4-8.5c0.4-1.4,3.7-3,5.6-2.9c7.3,0.2,14.5,1,21.8,1.6c2.3,0.2,4.8,0.4,7.1,0.1
		c4.1-0.5,8-1.6,12.1-1.9c6.1-0.3,12.3,0.1,18.4-0.2c2.1-0.1,4.9-1,6.2-2.3c4.5-4.8,9.6-6,15.8-3.2c1.5,0.7,2.9,1.8,4.4,2.2
		c1.2,0.3,2.6-0.2,3.9-0.4c-0.6-0.8-1-2-1.9-2.4c-1.9-1-3.9-1.7-6-2.3c-3.7-1.1-7.5-1.9-11.3-2.9c-3.6-0.9-5.9-2.7-6.4-6.1
		c-0.9-6.3-1.9-12.6-2.7-19c-0.1-1-0.3-2-0.4-3c-0.5-4.7,0.8-5.9,6.1-5.6c3.6,0.2,5.5-0.8,8.1-2.9c2.7-2.3,7.6-5.3,10.4-4.6
		c1.4,0.3,2.7,0.5,4.1,0.7c8.4,1.1,16.6-0.5,24.9-0.9c4.4-0.2,9,1.5,13.5,2.4c4.8,1,8.8,0.4,11.6-3.3c2.2-2.9,1.3-5.1-2.7-5.4
		c-4.6-0.3-9.4-0.4-13.9,0.4c-4.7,0.8-8.4,0.2-12.3-2.2c-3.1-1.9-6.3-3.5-9.7-4.6c-5.5-1.8-11.3-2-17.7,1c-1.2,0.5-4.1,0-4.8-0.9
		c-2.6-3.3-4.9-6.8-6.9-10.4c-1.7-3.2-0.6-6.5,3.5-7c8-0.9,12.2-5.8,16.9-10.3c0.6-0.6,1.2-1.1,1.8-1.6c3.9-3.2,8.3-5.1,14.3-4.4
		c2.1,0.2,5.5-0.7,6.4-2.1c2.9-4.5,6.8-4,11.3-3c8.3,1.9,16.3,2.2,24.3-1.4c2.6-1.2,6.2-1.4,9.2-1.2c3.7,0.2,6.3-0.6,9.3-2.6
		c2.4-1.6,6.1-2.2,9.3-2.5c2.6-0.2,5.3,1.1,7.9,1c3-0.2,5.9-1.1,8.7-2C451,330.4,451,327.9,450.8,327.9z M235.1,353.9
		c0,3-0.1,6.5-0.4,9.6c-4.3,0-10.7-0.1-15.4-0.1c0,0.9-0.1,3-0.1,8.6c0,4.2,0,8.2,0,12.8c0,2.9,2.5,4.6,4.7,4.6
		c4.1,0,8-0.7,11.2-1.5c0.5,2.8,0.9,6,1.1,8.6c-7,2.7-14.5,3.6-22.1,3.6c-2.8,0-5.3-0.7-8-3.1c-3.3-2.9-3.6-5.2-3.6-8.1
		c0-5.8,0.1-11,0.1-12.2c0-2.2,0.1-12.1,0.1-13.5c-1.7,0-4.6,0-7.2,0c0-2.9,0.1-6,0.3-8.7c2.2-0.2,4.6-0.4,6.7-0.6
		c0.4,0,0.7-0.3,0.7-0.8c0.3-2.7,0.5-6.1,0.8-8.5c5.1-2.6,15-5.4,15.3-5.4c0.2,0,0.3,0.1,0.3,0.4c-0.1,2.3-0.2,11.6-0.3,14.4
		C224.5,354,230.3,354,235.1,353.9z M255.7,387.2c2.4,2.3,5,2.5,7.7,2.5c4.4,0,11.1-1.6,14.5-2.9c0.7,2.7,1.5,6,2,8.5
		c-6.1,2.8-15.1,4.8-20,4.8c-13.7,0-24-6.7-24-21.2c0-14.6,10.5-26.1,25.9-26.1c6.4,0,11.2,2.3,14,5.4c3.3,3.9,5.2,9.2,5.2,15.8
		c-0.1,1.5-4.7,6-5.5,6.1c-2.7,0.3-13.3,0.3-22.4,0.3C253.1,383.9,254.4,385.8,255.7,387.2z M172,352.9c5.4,0,10.1,1.2,14.1,3.7
		c5.2,3.4,9.2,9.9,9.2,19c-0.1,9-5.1,16.7-11.1,20.6c-4,2.6-9.1,3.9-15,3.9c-6.1,0-12.2-1.4-16.3-4.9c-4.7-4-7.6-9.6-7.6-17.5
		c0-8.1,3.6-15.4,9.8-19.9C159.6,354.4,165.8,352.9,172,352.9z M155.1,340.4c0-3,2.4-6.2,6.5-6.2c4,0,6.3,3,6.3,6
		c0,3.8-2.6,6.4-6.6,6.4C158.1,346.6,155.1,344,155.1,340.4z M174.7,340.2c0-3,2.3-6,6.3-6c4.1,0,6.4,3.2,6.4,6.2
		c0,3.6-3,6.2-6.2,6.2C177.2,346.6,174.7,344,174.7,340.2z M321.5,369.1c-0.9-0.2-4-1-6.5-1c-1,0-2,0.1-3,0.9
		c-1.8,1.5-3.4,3.4-5.3,7.1c-1.2,2.5-1.4,5.8-1.5,8.6c0,1.7,0,4.1,0,5.7l8.4,0.3c0,2.8,0,5.7-0.2,8.4c-4.3,0-10.7,0-15.5,0
		c-4.5,0-10.3,0.1-14.6,0.1c0-2.8,0-5.9,0.1-8.4l4.8-0.2c0.3-0.1,0.4-0.2,0.4-0.4c0-8.3,0-17.9,0-25.9l-6.1-0.3
		c0-2.8,0.1-5.8,0.2-8.4c4.6-0.5,19.9-2.7,20.5-2.7c0.1,0,0.2,0,0.2,0.2c0.3,4.4,0.7,8.7,1,13.2l0.6,0.1
		c6.4-12.1,8.7-13.5,13.9-13.5c2.6,0,5.3,0.6,7.4,1.3C326.3,359,323.4,367.3,321.5,369.1z"/>
	<path d="M122.5,338.5c-3.1-0.9-6.6-1.4-11.4-1.4c-2.7,0-4.6,0.9-5.4,2.2c-0.9,1.5-1.3,4.5-1.1,14.6c5.7,0,11.4,0,18,0
		C122.5,348,122.5,343.5,122.5,338.5z"/>
</g>
</svg>
