<svg id="Layer_1" data-name="Layer 1" xmlns="http://www.w3.org/2000/svg" viewBox="0 0 490.08 434.34"><path d="M389.83,368.74a29.42,29.42,0,0,0-9-13c-2.1-1.72-3.26-2.4-5.42-1.42s-4.18,1.15-6.05,2.34c-1.46.91-2.47,2.66-3.76,4.18,1.34,6.09,2.3,11.66,3.58,17.05,1.71,6.61,8.35,9.51,14.43,6.67C390.07,381.48,392.32,375.7,389.83,368.74Z" transform="translate(0.02 1.94)"/><path d="M331.2,264.6c-8.9-2.2-20,5.1-19.6,13,.1,1.2.4,2.8,1.3,3.5,3.2,2.6,6.3,5.6,10.1,7,2,.7,5.5-1.6,8.3-2.5l2.7-.9c6.5-2.2,7.7-3.7,7.9-9.8C342.1,268.2,341,267.1,331.2,264.6Z" transform="translate(0.02 1.94)"/><path d="M451.35,336.28a5.32,5.32,0,0,0-2.47-.55c-3-.08-4.91,1.71-3.2,4.92,2.51,4.86,5.21,9.93,8.9,13.56,4.63,4.58,10.14,7.92,15.43,11.64a5.71,5.71,0,0,0,2.85,1c5.39.23,4.78.39,3.84-4C473.33,347.32,461.68,342.71,451.35,336.28Z" transform="translate(0.02 1.94)"/><path d="M139.77,268.47c-2.49-1.67-5.06-1.19-5.34,2.43-.49,5.45-.93,11.18.24,16.22,1.45,6.36,4.3,12.13,6.77,18.11a5.79,5.79,0,0,0,1.88,2.35c4.43,3.08,3.83,2.89,5.38-1.29,5.48-14.92-1.87-25.06-7.14-36A5.28,5.28,0,0,0,139.77,268.47Z" transform="translate(0.02 1.94)"/><path d="M405.81,234.36c-.63-2.85-1.15-5.88-2.41-8.26-1-1.77-3.08-3.7-4.78-3.8-4.68-.38-9.34,7.16-9.72,15.15-.36,5.89,1.34,7.59,7.91,8.29C405,246.53,407.47,243.37,405.81,234.36Z" transform="translate(0.02 1.94)"/><path d="M451.15,390.25a6.91,6.91,0,0,0-5.68,1.26c-3.38,2.81-4.63,7-3.51,11.71,1.38,5.4,5.33,6.24,11.09,7.08.83-.45,3.69-1.28,4.51-3.33C459.51,402.88,455,391.48,451.15,390.25Z" transform="translate(0.02 1.94)"/><path d="M401.05,318.62a4.18,4.18,0,0,0,.07-2.7c-1-3.17-2.33-6.25-3.25-9.41-1.4-5-3.72-8.14-9.54-6.28-2-.62-4.52-1.48-7.07-2.33-1.09-.27-2.18-.43-3.27-.6a17.71,17.71,0,0,0,.69,3.45c4.23,9.77,12.61,13.58,20.24,18.44A2.13,2.13,0,0,0,401.05,318.62Z" transform="translate(0.02 1.94)"/><path d="M459.6,47.2a13.89,13.89,0,0,0,13-8.3c1.1-2.8.7-4.9-2.2-6.6s-5.9-2.2-8.6.2c-2.2,1.9-4.7,3.8-6.2,6.1a6.17,6.17,0,0,0-.6,5.7C455.9,45.8,458.6,46.6,459.6,47.2Z" transform="translate(0.02 1.94)"/><path d="M424.9,183.3c-5-5.9-12.5-4.8-19.4-6.7-1.3.5-2.7,1.2-4.2,1.9.8,1.1,1.3,2.8,2.5,3.3,6,2.5,11.8,5.8,19.1,5.2,3.3-.3,6.7.4,10.1.5,1.1,0,2.2-.2,3.3-.3a8.27,8.27,0,0,0-2.9-2.1C430.6,184.4,426.2,184.8,424.9,183.3Z" transform="translate(0.02 1.94)"/><path d="M405.3,57.8c.2,1,2.6,1.8,3.2,2.2,5.1,0,15.4-7.1,16-10.1.5-2.4-2.4-4.6-5.2-3.4a67,67,0,0,0-12.2,6.3C405.7,53.7,405,56.2,405.3,57.8Z" transform="translate(0.02 1.94)"/><path d="M311.06,322c.58-4.68-2.9-6.79-6-8.08a9.36,9.36,0,0,0-6.34.42c-.72.36-1.62,3.71-1.17,4.44,2.4,3.55,5.3,6.83,7.82,10,1-.34,1.52-.31,1.84-.59C308.5,326.1,310.82,324.14,311.06,322Z" transform="translate(0.02 1.94)"/><path d="M457,150.37c-.1,3.3,2.47,7.17,5,7.22,2.9.17,7.34-5.37,7.68-9.46.24-3.89-2-4.83-4.39-5.17A8.09,8.09,0,0,0,457,150.37Z" transform="translate(0.02 1.94)"/><path d="M399.1,371.2c-.79-.25-1.94.68-2.46.95-.2,6.7,3.17,13.92,7,15.65a4.65,4.65,0,0,0,4-.06c.63-.46,1-2.55.84-3.86C408.07,377.05,404.5,373,399.1,371.2Z" transform="translate(0.02 1.94)"/><path d="M487.19,119.67c-5.17,1-10.35,2.18-15.54,3.47a28.07,28.07,0,0,0-5.34,2.19c-.72.36-1.18,1.33-1.72,2l2.79,2c6.82-1.89,13.85-3.78,20.79-5.87.81-.25,1.23-2.13,1.89-3.19C489.07,120,488.11,119.42,487.19,119.67Z" transform="translate(0.02 1.94)"/><path d="M386.8,390.8c-2.27,1.16-6.08,4.54-5.82,5.16,1.49,3.59,3.91,6.74,6.84,11.33,1.79-3.1,3.39-4.81,3.81-6.79C392.3,397.74,388.15,390.08,386.8,390.8Z" transform="translate(0.02 1.94)"/><path d="M392.32,328.92A87.66,87.66,0,0,0,387.41,339c-.25.79.63,2.74,1.38,3.59a2.43,2.43,0,0,0,2.72-.24c2-3.38,3.83-7,5.76-10.77-.72-1.35-1.14-2.77-2.2-3.44A2.86,2.86,0,0,0,392.32,328.92Z" transform="translate(0.02 1.94)"/><path d="M306.3,411.1c-.2.8-.9,1.7-.6,2.3,2.5,6,5.2,12.1,8,18.1.2.5,1.5.6,2.3.9.2-.5.3-1.1.8-2.8-2.5-5.2-5.4-11.2-8.3-17.2C308.2,411.8,307.1,411.5,306.3,411.1Z" transform="translate(0.02 1.94)"/><path d="M444.46,126.18c.75-2.46-3.16-7.41-5.77-7.26-1.41,0-2.9,1.53-3.83,2.07-.47,4.38,3.24,9.41,6,9C442.25,129.75,444,127.75,444.46,126.18Z" transform="translate(0.02 1.94)"/><path d="M58.5,278.16c-.86-1.09-2-2.21-3.07-3.43-.81,1.09-2.28,2.08-2.4,3.37-.58,6.48-2,13,.78,19.78,1.28,3.06,1.63,6.51,2.56,9.79.33,1.05.85,2,1.28,3.05a8.3,8.3,0,0,0,1.13-3.39c-.17-2.88-1.88-7-.84-8.65C62.07,292.14,58.77,285.31,58.5,278.16Z" transform="translate(0.02 1.94)"/><path d="M99,319.44c-3.18.9-6.09,4.51-5.38,6.91.7,2.82,7.32,5.39,11.33,4.49,3.78-.95,4-3.37,3.61-5.75A8.09,8.09,0,0,0,99,319.44Z" transform="translate(0.02 1.94)"/><path d="M137.35,339c-2.5-4.64-5.2-9.22-8-13.78a27.37,27.37,0,0,0-3.68-4.44,7,7,0,0,0-2.43-1c-.29.9-.58,1.8-1,3.25,3.86,5.94,7.76,12.08,11.84,18.07.48.7,2.4.53,3.61.85C137.61,340.87,137.86,339.78,137.35,339Z" transform="translate(0.02 1.94)"/><path d="M123.49,292.49c-.43-1.34-2.33-2.31-3.13-3-4.31.87-8,5.92-6.76,8.39.63,1.29,3.05,2.33,4.7,2.33C120.87,300.15,124.41,294.94,123.49,292.49Z" transform="translate(0.02 1.94)"/><path d="M227.7,322.8c-.7-1.6-1.3-3.4-1.9-5.1-.3,1.7-.7,3.4-1.1,5.1v.6c-.2,0-.4.1-.6.1a57.71,57.71,0,0,0,1.6,7.2,52.37,52.37,0,0,0,3.1,6.8c.4.9.9,1.8,1.4,2.7.6-1,1.7-2,1.6-3a49.93,49.93,0,0,0-1.5-8.6C229.8,326.6,228.5,324.7,227.7,322.8Z" transform="translate(0.02 1.94)"/><path d="M332.4,237.1c.1,0,.8-2,.6-2.1-2.4-1.5-5.1-2.8-7.9-4.3-1.9.9-3.3,1.6-4.7,2.2,1,1.1,1.8,2.8,3,3.1A54,54,0,0,0,332.4,237.1Z" transform="translate(0.02 1.94)"/><path d="M234.9,349.6c-.3.6-.9,1.2-.8,1.7.9,3.6,1.9,7.3,3.1,10.9.3.8,1.4,1.4,2.2,2.1.3-.9.7-1.8,1.1-3-1.1-3.5-2.1-7.1-3.3-10.7C237,350.1,235.7,349.9,234.9,349.6Z" transform="translate(0.02 1.94)"/><path d="M384.4,170.2c4.8,1,8.8.4,11.6-3.3,2.1-2.9,1.2-5.1-2.8-5.4a58.67,58.67,0,0,0-13.9.4,16.43,16.43,0,0,1-12.3-2.2,45.28,45.28,0,0,0-9.7-4.6,23.21,23.21,0,0,0-15.8.2v.9a2.07,2.07,0,0,1-2.1,2.2,6,6,0,0,1-2.9-1.2,10.38,10.38,0,0,0-6-1.8A16.62,16.62,0,0,0,326,156c-4.13-2.76-6.83-7.93-5.56-12.81l.09-.32.61,0a16.43,16.43,0,0,1,14-7.6,9.19,9.19,0,0,1,3.3.6c4-2.1,6.9-5.2,10.1-8.3.6-.6,1.2-1.1,1.8-1.6a18,18,0,0,1,14.3-4.4c2.1.2,5.5-.7,6.4-2.1,2.9-4.5,6.8-4,11.3-3,8.3,1.9,16.3,2.2,24.3-1.4,2.6-1.2,6.2-1.4,9.2-1.2a13.9,13.9,0,0,0,9.3-2.6c2.4-1.6,6.1-2.2,9.3-2.5,2.6-.2,5.3,1.1,7.9,1a36.67,36.67,0,0,0,8.7-2,10.14,10.14,0,0,0-.2-2.4c-2.9-.6-6-1.6-8.9-1.3-10.4,1.2-20.6,2.8-30.9,4.3-10-1.5-20.6.9-28-7.4-.5-.6-1.7-.8-2.7-1-2.8-.7-5.1-1.7-4.7-4.7s.4-6.4,4.3-8.2c4.9-2.2,8.6-.2,10.5,5.4,2.2,6.9,6.6,8.7,13.9,5.3,2.6-1.2,5.4-3.4,6.3-5.7,3-7,8.1-9.9,16.9-9,6.1.6,8.8-1.4,9.9-5.5,1.4-5.6-1-10.3-6.4-12.1-4.3-1.5-7-.5-8.6,3.3-.8,1.8-.6,4.1-1.9,5.3-1.6,1.5-4.3,2.9-6.5,2.8-1.9,0-5.5-2.8-5.2-3.3,3-6.3-3.2-7.7-7.2-9.8-8.6-4.4-13.5-2.3-15.2,6.2-.8,4.2-3.1,6.6-8.2,6.2-3.4-.3-5.3.5-6.6,3.6-2.6,6.3-5.8,7.4-13.6,6.5-3.2-.4-6.6.1-9.9.2-2.3,0-4.6,0-6.8-.1.2-2.1.4-4.2.5-6.4.2-4.9,8.2-8.2,3.9-14-.2-.2,1.2-1.7,2.2-2,7.3-2.7,13.9-6,19.5-11,1.2-1.1,3.5-1.3,5.4-1.6,7.3-1.4,14.6-2.5,19.8-8.1,1.9-2.1,5.1-3.2,7.7-4.8a71.41,71.41,0,0,0,6.5-4.1,17.55,17.55,0,0,0,2.4-3c-1.6.2-3.4,0-4.6.7-3.6,2.1-6.8,4.9-10.5,6.8-2,1-5.4,1.5-7.2.7-3.2-1.5-3.3-4.6-1.6-7.2a8.14,8.14,0,0,1,4.2-3.3c7.2-1.9,9.5-6.8,9.6-12.2.1-5.6-1.2-11.3-2.2-16.9-.5-2.7-1.6-2.4-3.4-.2a8.05,8.05,0,0,1-1.69,1.64L393.5-.2h-7.31c-.06-.1-.13-.19-.19-.3a31.34,31.34,0,0,0-8,.31L0,0V297.3s11.9-31.92,23.89-33.1,37.82,0,37.82,0-5.19-11.49,13.21-23l0,0c8.25-.2,13.35-3.56,18.38-11.49,4.3-6.8,11.7-9,20.6-6.4,1.7.5,4,.9,5.4.3,4.6-1.9,5.5.7,6.6,3.5a66.79,66.79,0,0,0,3.9,8.1,43.48,43.48,0,0,0,4.7,6.8,3.63,3.63,0,0,0,2.9.8c4.9-3.2,8.2-1,11.2,2.3,1.7,1.8,3.1,3.8,5,5.5,4,3.8,7.8,3.5,10.1-1.2,1.6-3.3,4.2-4.3,7.9-4.5,5.7-.3,10.6.7,14.3,4.9a98.11,98.11,0,0,0,7.3,7.1c4.5,4.1,6.4,4.3,11.8,1.3a13.85,13.85,0,0,1,16,1.4,81.06,81.06,0,0,0,10.1,7.3c4.9,2.9,7.8,6.7,6.8,11.7-1.7,9,6.7,12.9,12,18.4,1.8,1.8,4.1.6,3.6-1.6a34.69,34.69,0,0,0-3.9-9.4c-1.9-3.2-4.6-5.9-6.8-9a2.58,2.58,0,0,1,.3-2.8,3.59,3.59,0,0,1,3.2.1c4.8,4.7,9.7,9.3,13.8,14.4,3.1,4,4.9,8.7,7.4,13,.7,1.1,2.2,1.9,3.3,2.8.4-1.4,1.5-2.9,1.1-4.1a51.39,51.39,0,0,0-4.1-10.7c-4.7-7.9-9.3-15.6-11.3-24.5-1.8-8.3-2.4-16.5-.7-24.7.4-2,3.3-4.2,5.7-5.2,1.3-.5,5.2,1.1,5.7,2.5,2.5,6.1,7.7,9.5,13.9,12.3a23.29,23.29,0,0,1,3.4,2c-.1-1.4.3-2.9-.3-4.1a20.08,20.08,0,0,0-4-5.2c-4.9-4.4-9.8-8.8-14.9-13a63.22,63.22,0,0,0-7.5-4.7c-.9,2-1.8,4.1-2.7,6.1-.8,1.7-2.9,3.4-4,1.2a12.4,12.4,0,0,1-.4-8.5c.4-1.4,3.7-3,5.6-2.9,7.3.2,14.5,1,21.8,1.6a33.71,33.71,0,0,0,7.1.1c4.1-.5,8-1.6,12.1-1.9,6.1-.3,12.3.1,18.4-.2,2.1-.1,4.9-1,6.2-2.3,4.5-4.8,9.6-6,15.8-3.2,1.5.7,2.9,1.8,4.4,2.2,1.2.3,2.6-.2,3.9-.4-.6-.8-1-2-1.9-2.4a31,31,0,0,0-6-2.3c-3.7-1.1-7.5-1.9-11.3-2.9-3.6-.9-5.9-2.7-6.4-6.1-.7-4.6-1.4-9.3-2-14h-1.59c0-.15.09-.3.13-.46a31.43,31.43,0,0,1,1.17-4.73c1.88-4.42,7.16-6.08,10.86-9.13a15.11,15.11,0,0,0,1.68-1.62c.27-.2.56-.42.85-.66,2.7-2.3,7.6-5.3,10.4-4.6,1.4.3,2.7.5,4.1.7,8.4,1.1,16.6-.5,24.9-.9C375.3,167.6,379.9,169.3,384.4,170.2Z" transform="translate(0.02 1.94)"/><g id="floter_signature_svg_group" data-name="floter signature svg group"><path d="M129.47,128.46c-1.18,1.22-2.28,2.34-3.37,3.48-2,2.07-3.92,4.18-5.92,6.23-3,3.07-6,6.14-9.07,9.16-1.9,1.87-3.87,3.66-5.87,5.42a7,7,0,0,1-3,1.55,3.88,3.88,0,0,1-.76,0l-.65,0c-.14,0-.32.09-.4,0-.53-.37-1.17-.26-1.74-.49a5.52,5.52,0,0,1-2.56-2.3,8.33,8.33,0,0,1-1.17-4.26,5.35,5.35,0,0,1,.94-3.21,4.88,4.88,0,0,0,.63-1.57c1-4.14,2.05-8.28,3.06-12.42.59-2.42,1.14-4.85,1.75-7.26a1.15,1.15,0,0,0-.32-1.22c-.88-.9-1.71-1.84-2.63-2.84a6.25,6.25,0,0,1,.67-.91,36.13,36.13,0,0,0,4.66-5.93,3.69,3.69,0,0,0,.51-1.08c2.5-9.72,5.14-19.42,7.79-29.1,2.22-8.12,4.18-16.3,6.22-24.46.3-1.21.38-2.48.57-3.79,0,0,.13-.11.22-.1.77.12,1.56,0,2.28.1a22.5,22.5,0,0,0,2.46,0,15.08,15.08,0,0,1,1.78.15,5.48,5.48,0,0,0,2.51-.28,9,9,0,0,0,.87-.31.7.7,0,0,1,.77.24,2,2,0,0,1,.52.68A6.12,6.12,0,0,0,132,56.32a34.84,34.84,0,0,1,5.47,7,17.76,17.76,0,0,1,2.22,8.21,19.88,19.88,0,0,1-2.14,9.53,46.57,46.57,0,0,1-5.64,9.32c-4.08,5.14-8.19,10.25-12.23,15.42-2.27,2.91-4.44,5.91-6.63,8.88a3.72,3.72,0,0,0-.58,1.32q-2.57,10.64-5.08,21.29c-.06.25-.09.5-.18,1,.35-.32.57-.51.78-.72q5-5.24,10.08-10.46c2.92-3,5.79-6.13,8.7-9.17a2.06,2.06,0,0,0,.64-1.51c.11-9.08,3-17.29,7.79-24.92a31.47,31.47,0,0,1,7-7.5,38.24,38.24,0,0,1,7.44-5,18.13,18.13,0,0,1,7.32-2,8.46,8.46,0,0,1,4.23.93c.55.28,1.11.55,1.64.86a1.27,1.27,0,0,1,.41.42,12.9,12.9,0,0,0,2.36,2.48,24.64,24.64,0,0,1,7.07,9,.78.78,0,0,0,.12.22s.09.07.22.18l7.72-6.89,1.06,1c.35-2,.69-4,1.06-6A35.48,35.48,0,0,0,179,80.82a10.73,10.73,0,0,1-4.31,1.24,7.8,7.8,0,0,1-2.05-.31c0-1,0-2,0-3,0-.37,0-.74,0-1.11s-.12-.73-.16-1.1c-.07-.7-.12-1.41-.18-2.11-.09-.92,0-1.15,1-1.42a33.72,33.72,0,0,0,5.39-2.21c1.95-1,3.89-2,5.84-2.9a1.19,1.19,0,0,0,.73-1c1.11-5.15,2.25-10.29,3.34-15.45.5-2.35.9-4.72,1.39-7.07.24-1.15.56-2.28.9-3.4a7.25,7.25,0,0,1,.67-1.24l.67.23c.35.12.7.23,1,.37l1.09.44c.37.14.75.28,1.12.4.6.19,1.21.33,1.79.55s1.29.56,1.93.83a.53.53,0,0,1,.37.6c-.05.43-.05.86-.13,1.27-.45,2.13-.92,4.25-1.37,6.38q-1.12,5.34-2.24,10.67c0,.25-.08.5-.13.87a4,4,0,0,0,.67-.23c6.07-3.16,12.34-5.88,18.59-8.66,1-.44,2-.81,3-1.2a2.51,2.51,0,0,1,.74-.22c.92-.06,1.31-.24,1.52,1a20.67,20.67,0,0,0,.81,2.61c.25.88.46,1.77.71,2.65.18.63.39,1.25.62,2a6,6,0,0,1-.79.43c-4.42,1.59-8.64,3.65-12.89,5.62s-8.18,4-12.27,6c-.88.43-1.75.86-2.64,1.25a1,1,0,0,0-.68.88c-.71,3.94-1.48,7.88-2.19,11.82s-1.06,7.77-1.42,11.67c-.34,3.71-.85,7.39-1.26,11.09-.16,1.45-.23,2.9-.35,4.55a6.55,6.55,0,0,0,.61-.47c1.43-1.44,2.88-2.87,4.3-4.33a18.47,18.47,0,0,0,1.26-1.52c.27-.34.44-.71,1-.87a1.26,1.26,0,0,0,.76-1.3A69.59,69.59,0,0,1,200,84.55a30.9,30.9,0,0,1,8.43-12.68,28.37,28.37,0,0,1,7-4.72,16,16,0,0,1,13.39-.54A17.15,17.15,0,0,1,231,67.67a6.73,6.73,0,0,1,2.31,2.49,15.54,15.54,0,0,1,1,2,2.92,2.92,0,0,1,.36,2.2,1.3,1.3,0,0,0-.05.52c.13,1.85-.84,3.26-1.84,4.67a142.81,142.81,0,0,1-15.18,17.41c-3.87,3.91-7.78,7.79-11.69,11.65a1.36,1.36,0,0,0-.48,1.57c.35,1,.58,2,1,3a3.61,3.61,0,0,0,4.41,2,11.78,11.78,0,0,0,3.26-1.5,37.42,37.42,0,0,0,7.63-6.51q2.35-2.61,4.61-5.33a15.57,15.57,0,0,0,1.33-2.19q2.61-4.4,5.2-8.8c2-3.38,4.18-6.64,6.42-9.87,2-3,4-6,6-9,.15-.23.28-.48.41-.7-1.41-.73-2.79-1.42-4.14-2.17a10.9,10.9,0,0,1-3.17-2.73,7.9,7.9,0,0,1-1.4-7.06,9.3,9.3,0,0,1,3.27-5.13c1.84-1.5,3.72-3,5.69-4.29a13.43,13.43,0,0,1,7.43-2.32c1.07,0,2.13,0,3.18,0a7.94,7.94,0,0,1,3.51,1,7,7,0,0,1,2.94,3.36,6.74,6.74,0,0,1,.13,5.18c-.72,2.08-1.51,4.14-2.31,6.32a8.78,8.78,0,0,0,1.18-.06l12.09-2.1c.52-.09,1-.31,1.55-.4s.91-.3,1.4,0a1.77,1.77,0,0,0,.77,0,4.18,4.18,0,0,1,3.6,1.72,1.32,1.32,0,0,1,.25,1.18,8.05,8.05,0,0,0,.26,2.1c.08.5.2,1,.32,1.55-1.09.22-1.45,1.21-2.19,1.76-.06,0-.15.12-.16.19-.2,1.14-1.18,1.23-2,1.36a2.07,2.07,0,0,0-1,.47,44.7,44.7,0,0,0-5.52,5.4,89.77,89.77,0,0,0-14.6,24c-.4.91-.64,1.88-1,2.83l.17.13c.23-.18.48-.33.69-.53,2-1.83,4-3.69,6-5.5A87.49,87.49,0,0,1,276.57,87.2a31.2,31.2,0,0,1,10.11-3.93,17.56,17.56,0,0,1,5-.24,8,8,0,0,1,5.85,3.34l.9,1.17A70.94,70.94,0,0,1,292.56,94a2.46,2.46,0,0,1-1.37-.91,2.77,2.77,0,0,0-2.89-.74,23.28,23.28,0,0,0-7.23,2.85,65.67,65.67,0,0,0-8.61,6.1c-2.15,1.76-4.19,3.65-6.26,5.5-1.37,1.23-2.68,2.5-4,3.74a10.85,10.85,0,0,1-4.09,2.3,8.08,8.08,0,0,1-3.91.24c-1.09-.21-2.2-.38-3.26-.69a6.25,6.25,0,0,1-4.65-5.54,15,15,0,0,1,.51-5.18,46.78,46.78,0,0,1,4-10A97.14,97.14,0,0,1,262.37,73a1.86,1.86,0,0,0,.21-.28,1.78,1.78,0,0,0,0-.2c-1,.09-1.94.22-2.9.26-1.17,0-2.35,0-3.52,0a.87.87,0,0,0-.9.48C252,79,248.19,84.4,244.45,89.83c-1.06,1.55-2,3.17-3.08,4.79l.92.78a8,8,0,0,1-.61,1.16,155.87,155.87,0,0,1-10,13.4,76.75,76.75,0,0,1-6.81,7.16,51.6,51.6,0,0,1-6.09,4.62,21.58,21.58,0,0,1-5.54,2.5,12.22,12.22,0,0,1-7.76-.4,12,12,0,0,1-6.73-5.56c-.1-.18-.21-.35-.35-.59l-.52.59c-1.83,2.21-3.62,4.45-5.49,6.61-.63.73-1.21,1.61-2.28,1.82-1,1.08-2.38,1-3.66.85a6,6,0,0,1-3.94-1.87,14.44,14.44,0,0,1-1.52-2.55c-.23-.39-.36-.84-.59-1.23a13.26,13.26,0,0,1-1.66-6.42,64.24,64.24,0,0,1,.74-10.36c.34-2.69.61-5.39.92-8.22a4.62,4.62,0,0,0-.51.28c-1.47,1.19-2.93,2.4-4.42,3.56a1.24,1.24,0,0,0-.51,1.09,31.38,31.38,0,0,1-2.15,11.58,38.62,38.62,0,0,1-5.54,9.76,61.72,61.72,0,0,1-9.91,10.33,24.76,24.76,0,0,1-8.87,4.58,14.31,14.31,0,0,1-6.21.2,25.07,25.07,0,0,1-3.09-.69,13.18,13.18,0,0,1-7-5c-.79-1.06-1.46-2.2-2.18-3.3C129.82,129.06,129.68,128.81,129.47,128.46Zm22.77-40.22-.14-.12c-.26.16-.53.29-.77.47q-2,1.57-4.07,3.16a22.25,22.25,0,0,0-6.07,7.59c-3.08,6.12-5,12.54-4.66,19.49a17.49,17.49,0,0,0,.29,2.9,12.77,12.77,0,0,0,3.29,5.94,3,3,0,0,0,.88.67,7.8,7.8,0,0,0,5.49.68,15.09,15.09,0,0,0,5.45-3,48.41,48.41,0,0,0,9.55-10.65,24.94,24.94,0,0,0,3.32-7.13,4.19,4.19,0,0,0,.08-.56c-1.06.42-2,.85-3,1.21a11.11,11.11,0,0,1-8.62-.07,7.41,7.41,0,0,1-4.68-6.27,18.73,18.73,0,0,1,.47-5.78,28.8,28.8,0,0,1,2.75-7.56C152,88.9,152.09,88.57,152.24,88.24Zm-26-24.59L118.76,92.1c.17-.18.29-.29.4-.43,2.13-2.72,4.31-5.41,6.37-8.19a28.82,28.82,0,0,0,4.33-8.16,9.23,9.23,0,0,0-1.13-8.51c-.52-.75-1.08-1.48-1.63-2.21C126.86,64.29,126.58,64,126.24,63.65Zm80.29,31.4c.24-.2.34-.26.42-.34,3.91-4.06,7.88-8.08,11.71-12.22,2-2.12,3.68-4.46,5.5-6.71.18-.23.32-.5.5-.78-.28-.1-.44-.17-.6-.21a4.43,4.43,0,0,0-.51-.06,7.8,7.8,0,0,0-4.47.94,20.43,20.43,0,0,0-8.81,8.55A39.55,39.55,0,0,0,206.53,95.05Zm-44.9-4.42a21.41,21.41,0,0,0-3.81,9.74A21.31,21.31,0,0,0,165,96.85,12.65,12.65,0,0,0,161.63,90.63Zm84.75-29.54A11.15,11.15,0,0,0,250.56,63a21.82,21.82,0,0,0,2.87-6.2C250.5,57.43,248.62,59.44,246.38,61.09Z" transform="translate(0.02 1.94)" style="fill:#fff;fill-rule:evenodd"/><path d="M65.31,189.22c.58-.09.73-.52.9-1a94.9,94.9,0,0,0,2.91-9.61c2.82-10.83,5.57-21.68,8.44-32.49,1.88-7.06,3.91-14.07,5.87-21.09.07-.27.14-.54.24-1-.37.21-.62.33-.85.47L65.09,134.93c-.57.33-1.16.63-1.73.95s-1,.41-1.18.93a2,2,0,0,0-1.27.59,3.6,3.6,0,0,1-1.08.34c-.06-.05-.16-.08-.2-.15-.47-.79-.92-1.61-1.41-2.39a1.37,1.37,0,0,0-.56-.51,6.41,6.41,0,0,1-1.89-1.29,3.75,3.75,0,0,0-1-.52c0-1.76,1.08-3,1.81-4.44A1.39,1.39,0,0,0,58,128a.43.43,0,0,1,.29-.16,3.68,3.68,0,0,0,2.25-.89c5.13-3,10.23-6,15.35-9,3.47-2,6.92-4,10.41-6a2.35,2.35,0,0,0,1.24-1.59c1.4-5,2.76-10,4.31-15,1.82-5.87,3.84-11.69,5.75-17.54,1.75-5.39,3.46-10.79,5.19-16.18.07-.21.12-.43.22-.77-.31.16-.53.25-.73.38q-8.46,5.1-16.9,10.23c-6.58,4-13.33,7.71-20.08,11.41-5.32,2.92-10.61,5.9-15.7,9.22a45.05,45.05,0,0,0-7.84,6.12A18.41,18.41,0,0,0,38,103.59a5.07,5.07,0,0,0-.52,3,1.1,1.1,0,0,0,.51.83l2,1.26a3.25,3.25,0,0,1-.19.51c-.27.46-.54.92-.82,1.38-.13.22-.29.42-.43.63a6.66,6.66,0,0,0-.73,1.14,6.9,6.9,0,0,1-1.59,2.4,7.88,7.88,0,0,0-.84,1.2,4.13,4.13,0,0,1-2.16-.73c-.41-.26-.81-.53-1.24-.77a7.12,7.12,0,0,1-3.22-4.19,13.52,13.52,0,0,1,.64-10.11A28.68,28.68,0,0,1,35,91.9a51.71,51.71,0,0,1,9-7.15c6.2-4.08,12.67-7.7,19.21-11.21,9.34-5,18.35-10.57,27.42-16.05,4.72-2.86,9.51-5.62,14.3-8.38a22.11,22.11,0,0,1,7-2.63c.39-.07.79-.1,1.3-.16l.76,2.57,1.13-.11c.93,1.49.72,3.09.88,4.66l-.64.4c0,.26.09.54.15.9-.79.27-1,1-1.25,1.7-1.22,3.55-2.48,7.08-3.64,10.64-3.52,10.77-7.07,21.54-10.49,32.34-1.56,4.94-2.82,10-4.26,14.94-.18.6.11.91.47,1.37-.42.64-.85,1.3-1.26,2a2.29,2.29,0,0,0-.27.62c-4,14.18-8.11,28.33-11.68,42.64-2.07,8.3-4.29,16.56-6.53,24.82a72.43,72.43,0,0,1-2.45,7.14,21.8,21.8,0,0,1-1.85,3.38,3,3,0,0,1-2.16,1.51,1.49,1.49,0,0,0-.42.23l-.78-.61-1.75.35c-.11-.13-.24-.21-.24-.3,0-.63-.52-.93-.91-1.29a3.89,3.89,0,0,1-.88-1.24c-.32-.67-.72-1.3-1.07-2a1.7,1.7,0,0,1,.2-1.89c.15-.18.31-.34.47-.51C65.36,190,65.36,190,65.31,189.22Z" transform="translate(0.02 1.94)" style="fill:#fff;fill-rule:evenodd"/><path d="M141.78,69.41c.43-1.84,1.83-2.6,2.94-3.6.31-.27.89-.23,1.33-.36a8.9,8.9,0,0,0,1.37-.49l8.28-4.16a171.85,171.85,0,0,1,16.84-7.3,16.85,16.85,0,0,1,4.13-1,3,3,0,0,1,2.28.76,5.76,5.76,0,0,0,.7.44c0,.3-.05.63-.07,1,.52.45,1.06.92,1.61,1.38-.25.38-.39.55-.49.75a2.77,2.77,0,0,0-.27.67c-.26,1-.44,2.13-.78,3.16-.13.38-.58.66-.92,1a1.82,1.82,0,0,1-1.72.5,2.93,2.93,0,0,0-1.9.25c-2.87,1.2-5.81,2.26-8.64,3.53-3.55,1.59-7,3.35-10.53,5-2.26,1.09-4.53,2.2-6.79,3.31a2.5,2.5,0,0,0-.86.53c-.41.52-1,.49-1.55.71-.35.16-.61-.1-.81-.56-.35-.77-.72-1.53-1.09-2.29a1,1,0,0,0-.28-.31,7.06,7.06,0,0,1-1.92-2.25C142.45,69.77,142,69.58,141.78,69.41Z" transform="translate(0.02 1.94)" style="fill:#fff;fill-rule:evenodd"/></g></svg>