<svg version="1.1" id="Layer_1" xmlns="http://www.w3.org/2000/svg" xmlns:xlink="http://www.w3.org/1999/xlink" x="0px" y="0px"
	 viewBox="0 0 200 200" style="enable-background:new 0 0 200 200;" xml:space="preserve">
<style type="text/css">
	.icon_info_white-bg{fill:#FFFFFF;}
</style>
<circle class="icon_info_white-bg" cx="100" cy="100" r="90.5"/>
<path d="M100.5,10.5c49.6,0,90,40.4,90,90s-40.4,90-90,90s-90-40.4-90-90S50.9,10.5,100.5,10.5 M100.5,0.5c-55.2,0-100,44.8-100,100
	s44.8,100,100,100s100-44.8,100-100S155.7,0.5,100.5,0.5L100.5,0.5z"/>
<g>
	<path d="M79.5,97.1c0-4.2,0-8.2,0.1-12.2c11.3-1.3,26.4-4,29-4c1.2,0,5.7,3.7,7,6c-2.7,12.7-9.2,42.4-10.4,48c-0.3,0.6-0.1,1,0.4,1
		c1.5,0,5.4-0.4,9.5-1.5c0.3,3.9,0.7,7.9,1,11.8c-6.7,1.8-14.9,3.1-27.7,3.1c-1.2,0-6-4.2-7-6.7c3.1-14.6,7.1-34,9.4-45.3L79.5,97.1
		z M121.8,58.7c0,8.5-6.3,13.4-13.1,13.4c-7.9,0-12.5-6.1-12.5-12.1c0-6.7,5.7-12.4,13.4-12.4C118.7,47.7,121.8,53.6,121.8,58.7z"/>
</g>
</svg>
