<svg version="1.1" id="floter_logo" xmlns="http://www.w3.org/2000/svg" xmlns:xlink="http://www.w3.org/1999/xlink" x="0px" y="0px" viewBox="0 0 200 60" style="enable-background:new 0 0 200 60;" xml:space="preserve">
	<path id="fl" d="M30.1,21.7H19.9v-5.3c0-1.7,1.6-3,4.7-3c0.9,0,1.8,0.2,2.2,0.2V1c-1-0.2-2.8-0.3-4.5-0.3c-9.4,0-17.9,4-17.9,15.1
		v5.8H0v12.2h4.4v24.8h15.5V33.8h10.2v24.8h15.4V1.1H30.1V21.7z"/>
	<g id="o_1_">
		<path id="o" d="M73,15.6c-13.3,0-23.4,9.3-23.4,22s10.1,22,23.4,22c13.3,0,23.4-9.3,23.4-22S86.3,15.6,73,15.6z M73,46.4
			c-4.6,0-8-3.4-8-8.7c0-5.3,3.3-8.8,8-8.8c4.6,0,8,3.5,8,8.8C81,43,77.6,46.4,73,46.4z"/>
		<path d="M82.3,13.4c4,0,6.8-3,6.8-6.7C89.1,3,86.3,0,82.3,0c-4.1,0-6.8,3-6.8,6.7C75.5,10.3,78.2,13.4,82.3,13.4z"/>
		<path d="M64.4,13.4c4.1,0,6.9-3,6.9-6.7C71.3,3,68.5,0,64.4,0c-4.1,0-6.8,3-6.8,6.7C57.6,10.3,60.4,13.4,64.4,13.4z"/>
	</g>
	<path id="t" d="M117.6,42.6V28.8h6.8V16.6h-6.8V7.8h-15v8.8h-4.4v12.2h4v13.9c0,11.3,6,16.5,16.9,16.5c3.8,0,5.6-0.5,5.6-0.5v-13c0,0-1,0.1-1.5,0.1C120.7,45.9,117.6,45.5,117.6,42.6z"/>
	<path id="e" d="M148.9,15.6c-12.9,0-21.1,9.5-21.1,21.5c0,12.2,8.5,22.6,22.9,22.6c11.5,0,17.3-7.2,18.3-9.3L158.6,43c-0.8,1.2-3.7,3.7-7.6,3.7c-3.8,0-6.5-1.8-7.3-5.1h26.2c0.1-0.8,0.2-1.9,0.2-2.8C170.1,24.2,162.8,15.6,148.9,15.6z M144.1,32.3c0.2-1.6,1.5-4.5,5.2-4.5c3.4,0,5,2.6,5.2,4.5H144.1z"/>
	<path id="r" d="M189.1,22v-5.3h-15v42h15.4V39.1c0-5.5,2.9-8.7,8-8.7c1,0,1.9,0.2,2.5,0.3v-15C195.5,15.6,191.2,18,189.1,22z"/>
</svg>
